<svg id="Layer_1" data-name="Layer 1" xmlns="http://www.w3.org/2000/svg" viewBox="0 0 214.97 53.65"><defs><style>.cls-1{fill:#010101;}.cls-2{stroke:#fff;stroke-miterlimit:10;stroke-width:3px;}.cls-3{font-size:22px;letter-spacing:0.01em;}.cls-3,.cls-5{fill:#fff;font-family:AmericanTypewriter-Semibold, American Typewriter;font-weight:700;}.cls-4{letter-spacing:0.04em;}.cls-5{font-size:17px;letter-spacing:0.01em;}</style></defs><title>CryptoSource-logo-horiz</title><path class="cls-1" d="M35.05,33.22a.93.93,0,1,0-1.86,0,19,19,0,0,1-16.13,18.9.93.93,0,0,0-.78,1.06.94.94,0,0,0,.92.79h.15A20.88,20.88,0,0,0,35.05,33.22Z" transform="translate(-13.12 -12.23)"/><path class="cls-1" d="M34.12,12.23a21,21,0,0,0-21,21,.94.94,0,0,0,1.87,0,19.13,19.13,0,0,1,38.26,0,39,39,0,0,1-2,12.53.93.93,0,0,0,.58,1.19,1,1,0,0,0,.3.05.93.93,0,0,0,.88-.64,40.8,40.8,0,0,0,2.16-13.13A21,21,0,0,0,34.12,12.23Z" transform="translate(-13.12 -12.23)"/><path class="cls-1" d="M39.06,33.22a4.95,4.95,0,0,0-9.89,0,15,15,0,0,1-13.62,15,.94.94,0,0,0-.84,1,.93.93,0,0,0,1,.84A16.92,16.92,0,0,0,31,33.22a3.08,3.08,0,0,1,6.16,0,23.32,23.32,0,0,1-18,22.57.94.94,0,0,0,.2,1.85.76.76,0,0,0,.21,0A25.19,25.19,0,0,0,39.06,33.22Z" transform="translate(-13.12 -12.23)"/><path class="cls-1" d="M35,62.8l-.1-.11a.93.93,0,0,0-1.27-.23c-.85.57-1.67,1.07-2.51,1.53A.94.94,0,0,0,32,65.63c.65-.36,1.29-.75,1.94-1.16q.51.57,1.08,1.14a.93.93,0,1,0,1.32-1.32C35.85,63.8,35.39,63.31,35,62.8Z" transform="translate(-13.12 -12.23)"/><path class="cls-1" d="M38.8,54.19A17,17,0,0,1,37.32,50a1,1,0,0,0-.71-.72.94.94,0,0,0-1,.35,27,27,0,0,1-13.61,9.53.93.93,0,0,0-.62,1.16A.94.94,0,0,0,22.6,61,28.91,28.91,0,0,0,36,52.22,18.62,18.62,0,0,0,37.13,55a19.38,19.38,0,0,0,6.51,7.3.93.93,0,1,0,1-1.57A17.44,17.44,0,0,1,38.8,54.19Z" transform="translate(-13.12 -12.23)"/><path class="cls-1" d="M50.08,54.65a9.24,9.24,0,0,1-4.84-10.53,32.83,32.83,0,0,0,1.56-6.51,33.14,33.14,0,0,0,.29-4.39,13,13,0,0,0-25.94,0,7.1,7.1,0,0,1-7,7.09.94.94,0,0,0,0,1.87h0a9,9,0,0,0,8.87-9,11.11,11.11,0,0,1,22.21,0A31,31,0,0,1,45,37.36a31.6,31.6,0,0,1-1.48,6.18l0,.07a11.33,11.33,0,0,0-.35,2.78,11,11,0,0,0,6.16,9.93,1,1,0,0,0,.42.09.93.93,0,0,0,.41-1.76Z" transform="translate(-13.12 -12.23)"/><path class="cls-1" d="M47.68,57.92a13.23,13.23,0,0,1-6.29-15,28.93,28.93,0,0,0,1.69-9.75,9,9,0,0,0-17.92,0,11.09,11.09,0,0,1-10.58,11.1.92.92,0,0,0-.88,1,.94.94,0,0,0,1,.89A12.93,12.93,0,0,0,27,33.23a7.1,7.1,0,1,1,14.19,0,27.66,27.66,0,0,1-.55,5.44,26.63,26.63,0,0,1-1,3.73.56.56,0,0,0,0,.12,15.33,15.33,0,0,0-.5,3.87,15.11,15.11,0,0,0,7.68,13.15,1,1,0,0,0,.46.12.94.94,0,0,0,.81-.47A.92.92,0,0,0,47.68,57.92Z" transform="translate(-13.12 -12.23)"/><path class="cls-1" d="M52,51.09a5.22,5.22,0,0,1-3-4.7,5,5,0,0,1,.13-1.16l0,0s0,0,0,0a35.31,35.31,0,0,0,1.38-5.3,37.36,37.36,0,0,0,.58-5.76c0-.29,0-.57,0-.86a17,17,0,1,0-34,0,3.11,3.11,0,0,1-3,3.08.92.92,0,0,0-.92.94.93.93,0,0,0,.94.92A5,5,0,0,0,19,33.23a15.12,15.12,0,0,1,30.24,0c0,.26,0,.52,0,.8a33.71,33.71,0,0,1-.55,5.49,32.65,32.65,0,0,1-1.3,5s0,.1,0,.15,0,0,0,.07a7,7,0,0,0-.2,1.64,7.1,7.1,0,0,0,4,6.39.94.94,0,0,0,1.25-.44A.94.94,0,0,0,52,51.09Z" transform="translate(-13.12 -12.23)"/><path class="cls-1" d="M38,60.21a22.42,22.42,0,0,1-2.23-3.14.9.9,0,0,0-.65-.45.88.88,0,0,0-.76.21,31.14,31.14,0,0,1-8.47,5.22.93.93,0,1,0,.66,1.74,32.9,32.9,0,0,0,8.19-4.85,23,23,0,0,0,1.84,2.48,23.49,23.49,0,0,0,3.16,3.06.91.91,0,0,0,.58.2A.93.93,0,0,0,40.93,63,20.84,20.84,0,0,1,38,60.21Z" transform="translate(-13.12 -12.23)"/><rect class="cls-2" x="48.55" y="5.64" width="164.91" height="42.2" rx="3.88" ry="3.88"/><text class="cls-3" transform="translate(57.2 34.37)">C<tspan class="cls-4" x="14.3" y="0">r</tspan><tspan x="25.94" y="0">ypto</tspan></text><text class="cls-5" transform="translate(132.01 23.37)">[Source]</text></svg>